<svg width="23" height="21" viewBox="0 0 23 21" fill="none" xmlns="http://www.w3.org/2000/svg">
<path d="M0 2.96875C0 1.60156 1.09375 0.46875 2.5 0.46875H8.75V5.46875C8.75 6.17188 9.29688 6.71875 10 6.71875H15V11.6406L11.6016 15.0391C11.1719 15.4297 10.8984 15.9375 10.7812 16.4844L10.0391 19.4141C9.96094 19.7656 9.96094 20.1562 10.0781 20.5078H2.5C1.09375 20.5078 0 19.375 0 18.0078V2.96875ZM15 5.46875H10V0.46875L15 5.46875ZM21.4453 9.6875L22.0312 10.2734C22.6172 10.8594 22.6172 11.8359 22.0312 12.4609L20.8594 13.6328L18.0859 10.8594L19.2578 9.6875C19.8438 9.10156 20.8594 9.10156 21.4453 9.6875ZM12.1484 16.7578L17.2266 11.7188L20 14.4922L14.9219 19.5312C14.7656 19.6875 14.5703 19.8047 14.375 19.8828L11.9922 20.4688C11.7969 20.5078 11.5625 20.4688 11.4062 20.3125C11.25 20.1562 11.2109 19.9219 11.25 19.6875L11.8359 17.3438C11.875 17.1484 11.9922 16.9141 12.1484 16.7578Z" fill="#00CC99"/>
</svg>
