<svg width="16" height="21" viewBox="0 0 16 21" fill="none" xmlns="http://www.w3.org/2000/svg">
<path d="M3.25 0.46875H9.5V5.46875C9.5 6.17188 10.0469 6.71875 10.75 6.71875H15.75V17.9688C15.75 19.375 14.6172 20.4688 13.25 20.4688H3.25C1.84375 20.4688 0.75 19.375 0.75 17.9688V2.96875C0.75 1.60156 1.84375 0.46875 3.25 0.46875ZM10.75 0.46875L15.75 5.46875H10.75V0.46875ZM8.25 9.84375C7.70312 9.84375 7.3125 10.2734 7.3125 10.7812V12.6562H5.4375C4.89062 12.6562 4.5 13.0859 4.5 13.5938C4.5 14.1406 4.89062 14.5312 5.4375 14.5312H7.3125V16.4062C7.3125 16.9531 7.70312 17.3438 8.25 17.3438C8.75781 17.3438 9.1875 16.9531 9.1875 16.4062V14.5312H11.0625C11.5703 14.5312 12 14.1406 12 13.5938C12 13.0859 11.5703 12.6562 11.0625 12.6562H9.1875V10.7812C9.1875 10.2734 8.75781 9.84375 8.25 9.84375Z" fill="#00CC99"/>
</svg>
