<svg width="78" height="72" viewBox="0 0 78 72" fill="none" xmlns="http://www.w3.org/2000/svg">
    <path d="M1 4C1 2.067 2.567 0.5 4.5 0.5H73.5C75.433 0.5 77 2.067 77 4V68C77 69.933 75.433 71.5 73.5 71.5H4.5C2.567 71.5 1 69.933 1 68V4Z"
          fill="#01337F"/>
    <path d="M1 4C1 2.067 2.567 0.5 4.5 0.5H73.5C75.433 0.5 77 2.067 77 4V68C77 69.933 75.433 71.5 73.5 71.5H4.5C2.567 71.5 1 69.933 1 68V4Z"
          stroke="white"/>
    <path d="M16.852 19.68H25.492V33.6L37.444 19.68H47.524L34.468 34.8L48.004 54H37.924L28.948 40.992L25.492 44.928V54H16.852V19.68Z"
          fill="white"/>
    <path d="M62.6436 25.488C59.3796 25.488 58.3716 25.488 58.3716 28.368V29.424H62.6436V35.184H58.3716V54H50.6916V35.184H47.0436V29.424H50.6916V27.744C50.6916 22.224 52.2756 19.248 57.8916 19.248C60.0516 19.248 61.2516 19.44 62.6436 19.728V25.488Z"
          fill="#00B9FF"/>
</svg>
