<svg width="109" height="99" viewBox="0 0 109 99" fill="none" xmlns="http://www.w3.org/2000/svg">
<path d="M92.75 3.90625L100.062 11.2188C103.062 14.2188 103.062 18.9062 100.062 21.9062L26.75 95.2188C23.75 98.2188 19.0625 98.2188 16.0625 95.2188L8.75 87.9062C5.75 84.9062 5.75 80.2188 8.75 77.2188L82.0625 3.90625C85.0625 0.90625 89.75 0.90625 92.75 3.90625ZM86.375 8.03125L63.6875 30.7188L73.25 40.2812L95.9375 17.5938C96.5 17.0312 96.5 16.0938 95.9375 15.5312L88.4375 8.03125C87.875 7.46875 86.9375 7.46875 86.375 8.03125ZM12.875 83.5938L20.375 91.0938C20.9375 91.6562 21.875 91.6562 22.4375 91.0938L69.125 44.4062L59.5625 34.8438L12.875 81.5312C12.3125 82.0938 12.3125 83.0312 12.875 83.5938ZM24.5 25.4688H33.5C35 25.4688 36.5 26.9688 36.5 28.4688C36.5 30.1562 35 31.4688 33.5 31.4688H24.5V40.4688C24.5 42.1562 23 43.4688 21.5 43.4688C19.8125 43.4688 18.5 42.1562 18.5 40.4688V31.4688H9.5C7.8125 31.4688 6.5 30.1562 6.5 28.4688C6.5 26.9688 7.8125 25.4688 9.5 25.4688H18.5V16.4688C18.5 14.9688 19.8125 13.4688 21.5 13.4688C23 13.4688 24.5 14.9688 24.5 16.4688V25.4688ZM87.5 61.4688C89 61.4688 90.5 62.9688 90.5 64.4688V73.4688H99.5C101 73.4688 102.5 74.9688 102.5 76.4688C102.5 78.1562 101 79.4688 99.5 79.4688H90.5V88.4688C90.5 90.1562 89 91.4688 87.5 91.4688C85.8125 91.4688 84.5 90.1562 84.5 88.4688V79.4688H75.5C73.8125 79.4688 72.5 78.1562 72.5 76.4688C72.5 74.9688 73.8125 73.4688 75.5 73.4688H84.5V64.4688C84.5 62.9688 85.8125 61.4688 87.5 61.4688ZM47.75 8.21875H51.5C52.625 8.21875 53.75 9.34375 53.75 10.4688C53.75 11.7812 52.625 12.9062 51.5 12.9062H47.75V16.4688C47.75 17.7812 46.625 18.9062 45.5 18.9062C44.1875 18.9062 43.0625 17.7812 43.0625 16.4688V12.9062H39.5C38.1875 12.9062 37.0625 11.7812 37.0625 10.4688C37.0625 9.34375 38.1875 8.21875 39.5 8.21875H43.0625V4.46875C43.0625 3.34375 44.1875 2.21875 45.5 2.21875C46.625 2.21875 47.75 3.34375 47.75 4.46875V8.21875Z" fill="#F0459C"/>
</svg>
